<svg xmlns="http://www.w3.org/2000/svg" height="512pt" version="1.1" viewBox="0 -7 512.00099 512" width="512pt">
<g id="surface1">
<path d="M 499.917969 131.707031 L 499.917969 437.59375 C 499.917969 464.03125 478.503906 485.445312 452.066406 485.445312 L 59.933594 485.445312 C 33.496094 485.445312 12.082031 464.03125 12.082031 437.59375 L 12.082031 131.707031 Z M 499.917969 131.707031 " style=" stroke:none;fill-rule:nonzero;fill:rgb(46.666667%,96.862745%,66.666667%);fill-opacity:1;" />
<path d="M 499.917969 60.054688 L 499.917969 131.710938 L 12.082031 131.710938 L 12.082031 60.054688 C 12.082031 33.617188 33.496094 12.203125 59.933594 12.203125 L 451.949219 12.203125 C 478.503906 12.203125 499.917969 33.617188 499.917969 60.054688 Z M 499.917969 60.054688 " style=" stroke:none;fill-rule:nonzero;fill:rgb(87.058824%,100%,90.980392%);fill-opacity:1;" />
<path d="M 512 59.8125 C 512 26.796875 485.203125 0 452.1875 0 L 59.8125 0 C 26.796875 0 0 26.796875 0 59.8125 L 0 437.832031 C 0 470.847656 26.796875 497.644531 59.8125 497.644531 L 452.1875 497.644531 C 485.203125 497.644531 512 470.847656 512 437.832031 Z M 59.933594 23.925781 L 451.949219 23.925781 C 471.804688 24.046875 487.953125 40.195312 487.953125 60.054688 L 487.953125 119.628906 L 23.925781 119.628906 L 23.925781 60.054688 C 24.046875 40.195312 40.074219 24.046875 59.933594 23.925781 Z M 452.066406 473.71875 L 59.933594 473.71875 C 40.074219 473.601562 23.925781 457.449219 23.925781 437.59375 L 23.925781 143.550781 L 488.074219 143.550781 L 488.074219 437.59375 C 487.953125 457.449219 471.925781 473.601562 452.066406 473.71875 Z M 452.066406 473.71875 " style=" stroke:none;fill-rule:nonzero;fill:rgb(14.117647%,70.196078%,38.039216%);fill-opacity:1;" />
<path d="M 81.34375 92.113281 L 130.390625 92.113281 C 136.972656 92.113281 142.355469 86.730469 142.355469 80.148438 C 142.355469 73.570312 136.972656 68.1875 130.390625 68.1875 L 81.34375 68.1875 C 74.765625 68.1875 69.382812 73.570312 69.382812 80.148438 C 69.382812 86.730469 74.765625 92.113281 81.34375 92.113281 Z M 81.34375 92.113281 " style=" stroke:none;fill-rule:nonzero;fill:rgb(14.117647%,70.196078%,38.039216%);fill-opacity:1;" />
<path d="M 380.410156 92.113281 L 429.457031 92.113281 C 436.039062 92.113281 441.421875 86.730469 441.421875 80.148438 C 441.421875 73.570312 436.039062 68.1875 429.457031 68.1875 L 380.410156 68.1875 C 373.832031 68.1875 368.449219 73.570312 368.449219 80.148438 C 368.449219 86.730469 373.832031 92.113281 380.410156 92.113281 Z M 380.410156 92.113281 " style=" stroke:none;fill-rule:nonzero;fill:rgb(14.117647%,70.196078%,38.039216%);fill-opacity:1;" />
<path d="M 157.90625 288.300781 L 246.429688 288.300781 C 253.007812 288.300781 258.390625 282.917969 258.390625 276.335938 C 258.390625 269.757812 253.007812 264.375 246.429688 264.375 L 157.90625 264.375 C 151.328125 264.375 145.945312 269.757812 145.945312 276.335938 C 145.945312 282.917969 151.328125 288.300781 157.90625 288.300781 Z M 157.90625 288.300781 " style=" stroke:none;fill-rule:nonzero;fill:rgb(14.117647%,70.196078%,38.039216%);fill-opacity:1;" />
<path d="M 354.09375 324.1875 L 157.90625 324.1875 C 151.328125 324.1875 145.945312 329.570312 145.945312 336.148438 C 145.945312 342.730469 151.328125 348.113281 157.90625 348.113281 L 354.09375 348.113281 C 360.671875 348.113281 366.054688 342.730469 366.054688 336.148438 C 366.054688 329.570312 360.671875 324.1875 354.09375 324.1875 Z M 354.09375 324.1875 " style=" stroke:none;fill-rule:nonzero;fill:rgb(14.117647%,70.196078%,38.039216%);fill-opacity:1;" />
</g>
</svg>